<?xml version="1.0" encoding="UTF-8" standalone="no"?>
<svg xmlns="http://www.w3.org/2000/svg" xmlns:osb="http://www.openswatchbook.org/uri/2009/osb" height="512" width="512" version="1.1" xmlns:xlink="http://www.w3.org/1999/xlink" viewBox="0 0 135.46666 135.46666">
 <defs>
  <linearGradient id="a" y2="396.5" gradientUnits="userSpaceOnUse" x2="177.5" gradientTransform="translate(-8.247e-7 -.000004510)" y1="263" x1="42.5">
   <stop stop-color="#0e8cba" offset="0"/>
   <stop stop-color="#0d7499" offset="1"/>
  </linearGradient>
 </defs>
  <rect height="512" width="512" y="0" x="0" fill="url(#a)"/>
 <g transform="translate(-42.5 -261.8)">

  <path stroke-linejoin="round" opacity=".1" d="m144.3 291-11.6 29-60.77 39.7 11.21-29.3z" stroke="#000" stroke-width="3.687"/>
  <path stroke-linejoin="round" opacity=".1" d="m129.8 328.3-7.74 21.96-14.02-7.742z" stroke="#000" stroke-width="3.687"/>
  <path stroke-linejoin="round" opacity=".1" d="m102.9 345.9 14.26 7.874-25.84 10.04-15.85 0.006z" stroke="#000" stroke-width="3.687"/>
  <path stroke-linejoin="round" d="m67.41 372.7 15.99-0.006 2.146 14.27z" stroke="#fdfdfd" stroke-width="3.687" fill="#fdfdfd"/>
  <path stroke-linejoin="round" d="m88.83 372.7 1.266-0.00048 23.07 12.65-21.73 4.688z" stroke="#fdfdfd" stroke-width="3.687" fill="#fdfdfd"/>
  <path stroke-linejoin="round" d="m69.37 381.1 17.44 13.72 6.226 26.71-0.05686 0.0877-16.98-12.73z" stroke="#fdfdfd" stroke-width="3.687" fill="#fdfdfd"/>
  <path stroke-linejoin="round" d="m114.7 390.5-17.53 25.1-4.73-20.3z" stroke="#fdfdfd" stroke-width="3.687" fill="#fdfdfd"/>
  <path stroke-linejoin="round" d="m143.2 290-11.54 28.98-60.82 39.73 11.21-29.36z" stroke="#fdfdfd" stroke-width="3.687" fill="#fdfdfd"/>
  <path stroke-linejoin="round" d="m128.7 327.3-7.74 21.96-14.02-7.742z" stroke="#fdfdfd" stroke-width="3.687" fill="#fdfdfd"/>
  <path stroke-linejoin="round" d="m101.9 344.8 14.26 7.874-25.84 10.04-15.85 0.006z" stroke="#fdfdfd" stroke-width="3.687" fill="#fdfdfd"/>
  <path stroke-linejoin="round" d="m60.27 372.7-15.99-0.006-2.146 14.27z" stroke="#fdfdfd" stroke-width="3.687" fill="#fdfdfd"/>
  <path stroke-linejoin="round" d="m58.31 381.1-17.44 13.72-6.226 26.71 0.05686 0.0877 16.98-12.73z" stroke="#fdfdfd" stroke-width="3.687" fill="#fdfdfd"/>
  <path stroke-linejoin="round" d="m-15.54 290 11.54 28.98 60.82 39.73-11.21-29.36z" stroke="#fdfdfd" stroke-width="3.687" fill="#fdfdfd"/>
  <path stroke-linejoin="round" d="m25.83 344.8-14.26 7.874 25.84 10.04 15.85 0.006z" stroke="#fdfdfd" stroke-width="3.687" fill="#fdfdfd"/>
 </g>
</svg>
