<?xml version="1.0" encoding="UTF-8" standalone="no"?>
<!-- Created with Inkscape (http://www.inkscape.org/) -->

<svg
   xmlns:dc="http://purl.org/dc/elements/1.1/"
   xmlns:cc="http://creativecommons.org/ns#"
   xmlns:rdf="http://www.w3.org/1999/02/22-rdf-syntax-ns#"
   xmlns:svg="http://www.w3.org/2000/svg"
   xmlns="http://www.w3.org/2000/svg"
   xmlns:sodipodi="http://sodipodi.sourceforge.net/DTD/sodipodi-0.dtd"
   xmlns:inkscape="http://www.inkscape.org/namespaces/inkscape"
   width="90"
   height="90"
   id="svg4874"
   version="1.1"
   inkscape:version="0.48+devel r"
   viewBox="0 0 90 90.000001"
   sodipodi:docname="insert-link02b.svg">
  <defs
     id="defs4876" />
  <sodipodi:namedview
     id="base"
     pagecolor="#ffffff"
     bordercolor="#666666"
     borderopacity="1.0"
     inkscape:pageopacity="0.0"
     inkscape:pageshadow="2"
     inkscape:zoom="5.0931704"
     inkscape:cx="51.019301"
     inkscape:cy="39.641321"
     inkscape:document-units="px"
     inkscape:current-layer="g4978"
     showgrid="true"
     showborder="true"
     fit-margin-top="0"
     fit-margin-left="0"
     fit-margin-right="0"
     fit-margin-bottom="0"
     inkscape:snap-bbox="true"
     inkscape:bbox-paths="true"
     inkscape:bbox-nodes="true"
     inkscape:snap-bbox-edge-midpoints="true"
     inkscape:snap-bbox-midpoints="true"
     inkscape:object-paths="true"
     inkscape:snap-intersection-paths="true"
     inkscape:object-nodes="true"
     inkscape:snap-smooth-nodes="true"
     inkscape:snap-midpoints="true"
     inkscape:snap-object-midpoints="true"
     inkscape:snap-center="true"
     showguides="true"
     inkscape:guide-bbox="true">
    <inkscape:grid
       type="xygrid"
       id="grid5451"
       empspacing="6" />
    <sodipodi:guide
       orientation="1,0"
       position="6,77"
       id="guide4063" />
    <sodipodi:guide
       orientation="1,0"
       position="3,78"
       id="guide4065" />
    <sodipodi:guide
       orientation="0,1"
       position="55,84"
       id="guide4067" />
    <sodipodi:guide
       orientation="0,1"
       position="53,87"
       id="guide4069" />
    <sodipodi:guide
       orientation="0,1"
       position="20,3"
       id="guide4071" />
    <sodipodi:guide
       orientation="0,1"
       position="20,6"
       id="guide4073" />
    <sodipodi:guide
       orientation="1,0"
       position="87,7"
       id="guide4075" />
    <sodipodi:guide
       orientation="1,0"
       position="84,7"
       id="guide4077" />
    <sodipodi:guide
       orientation="0,1"
       position="58,81"
       id="guide4074" />
    <sodipodi:guide
       orientation="1,0"
       position="9,74"
       id="guide4076" />
    <sodipodi:guide
       orientation="0,1"
       position="21,9"
       id="guide4078" />
    <sodipodi:guide
       orientation="1,0"
       position="81,4"
       id="guide4080" />
  </sodipodi:namedview>
  <metadata
     id="metadata4879">
    <rdf:RDF>
      <cc:Work
         rdf:about="">
        <dc:format>image/svg+xml</dc:format>
        <dc:type
           rdf:resource="http://purl.org/dc/dcmitype/StillImage" />
        <dc:title></dc:title>
      </cc:Work>
    </rdf:RDF>
  </metadata>
  <g
     inkscape:label="Layer 1"
     inkscape:groupmode="layer"
     id="layer1"
     transform="translate(67.857146,-84.50504)">
    <g
       transform="matrix(0,-1,-1,0,373.50506,516.50504)"
       id="g4845"
       style="display:inline">
      <g
         inkscape:label="Layer 1"
         id="layer1-8"
         transform="matrix(0,-1,-1,0,1394.3622,441.36221)">
        <rect
           style="color:#000000;fill:none;stroke:none;stroke-width:7.5;marker:none;visibility:visible;display:inline;overflow:visible;enable-background:accumulate"
           id="rect4198"
           width="90"
           height="90"
           x="0"
           y="962.36218" />
        <g
           id="g4978"
           transform="translate(-60,548.00002)">
          <rect
             style="color:#000000;fill:none;stroke:none;stroke-width:6;marker:none;visibility:visible;display:inline;overflow:visible;enable-background:accumulate"
             id="rect3038"
             width="90"
             height="90"
             x="0"
             y="1.7382814e-05"
             transform="translate(60,414.36216)" />
          <path
             style="color:#000000;display:inline;overflow:visible;visibility:visible;opacity:1;fill:none;fill-opacity:1;fill-rule:nonzero;stroke:#808080;stroke-width:6;stroke-linecap:butt;stroke-linejoin:miter;stroke-miterlimit:4;stroke-dasharray:none;stroke-dashoffset:0;stroke-opacity:1;marker:none;enable-background:accumulate"
             d="M 92.075086,472.28711 117.92492,446.43727"
             id="path4188"
             inkscape:connector-curvature="0"
             sodipodi:nodetypes="cc" />
          <path
             style="color:#000000;font-style:normal;font-variant:normal;font-weight:normal;font-stretch:normal;font-size:medium;line-height:normal;font-family:sans-serif;text-indent:0;text-align:start;text-decoration:none;text-decoration-line:none;text-decoration-style:solid;text-decoration-color:#000000;letter-spacing:normal;word-spacing:normal;text-transform:none;direction:ltr;block-progression:tb;writing-mode:lr-tb;baseline-shift:baseline;text-anchor:start;clip-rule:nonzero;display:inline;overflow:visible;visibility:visible;opacity:1;isolation:auto;color-interpolation:sRGB;color-interpolation-filters:linearRGB;fill:#808080;fill-opacity:1;fill-rule:nonzero;stroke:none;stroke-width:5.99999952;stroke-linecap:butt;stroke-linejoin:miter;stroke-miterlimit:4;stroke-dasharray:none;stroke-dashoffset:0;stroke-opacity:1;marker:none;color-rendering:auto;image-rendering:auto;shape-rendering:auto;text-rendering:auto;enable-background:accumulate"
             d="M 63.667969 9.0371094 C 63.165875 9.0539444 62.671019 9.1114844 62.183594 9.2089844 C 58.284224 9.9890744 55.804541 12.722793 53.650391 14.876953 L 47.1875 21.339844 C 45.03334 23.493994 42.301574 25.973667 41.521484 29.873047 C 41.188085 31.539603 41.327146 33.294372 41.955078 35.121094 L 49.910156 27.164062 C 50.372184 26.657905 50.880803 26.130913 51.429688 25.582031 L 57.892578 19.119141 C 60.046728 16.964991 61.875558 15.389037 63.361328 15.091797 C 63.547048 15.054647 63.742359 15.027806 63.949219 15.017578 C 64.156079 15.007351 64.374492 15.013756 64.607422 15.041016 C 66.005022 15.204646 67.917154 16.153481 70.882812 19.119141 C 74.837032 23.073351 75.205443 25.154865 74.908203 26.640625 C 74.610973 28.126395 73.035009 29.953262 70.880859 32.107422 L 64.419922 38.570312 C 63.865878 39.124359 63.33492 39.635932 62.824219 40.101562 L 54.878906 48.046875 C 56.706268 48.675332 58.461808 48.813981 60.128906 48.480469 C 64.028276 47.700379 66.507959 44.96665 68.662109 42.8125 L 75.125 36.349609 C 77.27915 34.195449 80.010926 31.715786 80.791016 27.816406 C 81.571096 23.917036 79.78641 19.5364 75.125 14.875 C 71.62895 11.37895 68.290852 9.500825 65.195312 9.109375 C 64.679394 9.044135 64.170062 9.0202744 63.667969 9.0371094 z M 31.355469 41.349609 C 30.853375 41.366444 30.358515 41.423984 29.871094 41.521484 C 25.971725 42.301574 23.492043 45.035303 21.337891 47.189453 L 14.875 53.650391 C 12.720847 55.804541 9.9890734 58.286177 9.2089844 62.185547 C 8.4288954 66.084907 10.213595 70.465553 14.875 75.126953 C 19.536407 79.788363 23.917035 81.573059 27.816406 80.792969 C 31.715777 80.012879 34.195456 77.27915 36.349609 75.125 L 42.8125 68.662109 C 44.96665 66.507949 47.698426 64.028286 48.478516 60.128906 C 48.812028 58.461808 48.673379 56.706268 48.044922 54.878906 L 40.109375 62.814453 C 39.641569 63.32819 39.12796 63.862274 38.570312 64.419922 L 32.107422 70.882812 C 29.953269 73.036972 28.124437 74.610973 26.638672 74.908203 C 25.152907 75.205443 23.071405 74.837002 19.117188 70.882812 C 15.162971 66.928594 14.794562 64.847088 15.091797 63.361328 C 15.389032 61.875558 16.964989 60.048681 19.119141 57.894531 L 25.580078 51.431641 C 26.132543 50.879177 26.662506 50.368883 27.171875 49.904297 L 35.119141 41.957031 C 34.361083 41.696439 33.61486 41.514447 32.882812 41.421875 C 32.366891 41.356635 31.857562 41.332774 31.355469 41.349609 z "
             transform="translate(60.000003,414.36218)"
             id="path4190" />
        </g>
      </g>
    </g>
  </g>
</svg>
